<mxfile host="app.diagrams.net" modified="2023-09-28T19:15:23.554Z" agent="Mozilla/5.0 (X11; Linux x86_64; rv:109.0) Gecko/20100101 Firefox/114.0" etag="uIQZOE7HwC2jmoU3Yps4" version="22.0.0" type="github">
  <diagram name="Page-1" id="ffP9f0a0-D-cKnNLKEZI">
    <mxGraphModel dx="2359" dy="837" grid="1" gridSize="10" guides="1" tooltips="1" connect="1" arrows="1" fold="1" page="1" pageScale="1" pageWidth="850" pageHeight="1100" math="0" shadow="0">
      <root>
        <mxCell id="0" />
        <mxCell id="1" parent="0" />
        <mxCell id="SIgzl4zAMHbpu5Pqynte-44" value="Profesor" style="whiteSpace=wrap;html=1;align=center;fillColor=#ffe6cc;strokeColor=#d79b00;" vertex="1" parent="1">
          <mxGeometry x="-430" y="440" width="100" height="40" as="geometry" />
        </mxCell>
        <mxCell id="SIgzl4zAMHbpu5Pqynte-45" value="MÃ³dulo" style="whiteSpace=wrap;html=1;align=center;fillColor=#ffe6cc;strokeColor=#d79b00;" vertex="1" parent="1">
          <mxGeometry x="-50" y="440" width="100" height="40" as="geometry" />
        </mxCell>
        <mxCell id="SIgzl4zAMHbpu5Pqynte-55" style="edgeStyle=orthogonalEdgeStyle;rounded=0;orthogonalLoop=1;jettySize=auto;html=1;entryX=1;entryY=0.5;entryDx=0;entryDy=0;endArrow=none;endFill=0;" edge="1" parent="1" source="SIgzl4zAMHbpu5Pqynte-47" target="SIgzl4zAMHbpu5Pqynte-54">
          <mxGeometry relative="1" as="geometry" />
        </mxCell>
        <mxCell id="SIgzl4zAMHbpu5Pqynte-47" value="Alumno" style="whiteSpace=wrap;html=1;align=center;fillColor=#ffe6cc;strokeColor=#d79b00;" vertex="1" parent="1">
          <mxGeometry x="310" y="440" width="100" height="40" as="geometry" />
        </mxCell>
        <mxCell id="SIgzl4zAMHbpu5Pqynte-50" style="edgeStyle=orthogonalEdgeStyle;rounded=0;orthogonalLoop=1;jettySize=auto;html=1;entryX=1;entryY=0.5;entryDx=0;entryDy=0;endArrow=none;endFill=0;" edge="1" parent="1" source="SIgzl4zAMHbpu5Pqynte-49" target="SIgzl4zAMHbpu5Pqynte-44">
          <mxGeometry relative="1" as="geometry" />
        </mxCell>
        <mxCell id="SIgzl4zAMHbpu5Pqynte-51" style="edgeStyle=orthogonalEdgeStyle;rounded=0;orthogonalLoop=1;jettySize=auto;html=1;entryX=0;entryY=0.5;entryDx=0;entryDy=0;endArrow=none;endFill=0;" edge="1" parent="1" source="SIgzl4zAMHbpu5Pqynte-49" target="SIgzl4zAMHbpu5Pqynte-45">
          <mxGeometry relative="1" as="geometry" />
        </mxCell>
        <mxCell id="SIgzl4zAMHbpu5Pqynte-49" value="Relationship" style="shape=rhombus;perimeter=rhombusPerimeter;whiteSpace=wrap;html=1;align=center;fillColor=#dae8fc;strokeColor=#6c8ebf;" vertex="1" parent="1">
          <mxGeometry x="-250" y="430" width="120" height="60" as="geometry" />
        </mxCell>
        <mxCell id="SIgzl4zAMHbpu5Pqynte-56" style="edgeStyle=orthogonalEdgeStyle;rounded=0;orthogonalLoop=1;jettySize=auto;html=1;entryX=1;entryY=0.5;entryDx=0;entryDy=0;endArrow=none;endFill=0;" edge="1" parent="1" source="SIgzl4zAMHbpu5Pqynte-54" target="SIgzl4zAMHbpu5Pqynte-45">
          <mxGeometry relative="1" as="geometry" />
        </mxCell>
        <mxCell id="SIgzl4zAMHbpu5Pqynte-54" value="Relationship" style="shape=rhombus;perimeter=rhombusPerimeter;whiteSpace=wrap;html=1;align=center;fillColor=#dae8fc;strokeColor=#6c8ebf;" vertex="1" parent="1">
          <mxGeometry x="120" y="430" width="120" height="60" as="geometry" />
        </mxCell>
      </root>
    </mxGraphModel>
  </diagram>
</mxfile>
